<svg xmlns="http://www.w3.org/2000/svg" version="1.1" xmlns:xlink="http://www.w3.org/1999/xlink" xmlns:svgjs="http://svgjs.com/svgjs" width="1440" height="560" preserveAspectRatio="none" viewBox="0 0 1440 560"><g mask="url(&quot;#SvgjsMask1022&quot;)" fill="none"><path d="M446.02,187.025C461.262,186.715,473.635,176.215,481.319,163.048C489.076,149.755,492.39,133.662,485.056,120.131C477.41,106.025,462.065,97.892,446.02,97.924C430.03,97.956,415.154,106.384,407.25,120.284C399.434,134.03,400.201,150.863,408.144,164.536C416.049,178.144,430.286,187.345,446.02,187.025" fill="rgba(31, 81, 86, 0.31)" class="triangle-float2"></path><path d="M1234.536,154.744C1248.84,154.161,1258.486,141.547,1265.133,128.868C1271.208,117.279,1273.697,103.702,1267.267,92.306C1260.737,80.734,1247.817,75.045,1234.536,74.644C1220.415,74.217,1205.628,78.208,1198.189,90.218C1190.41,102.777,1192.037,118.683,1199.287,131.554C1206.685,144.688,1219.475,155.358,1234.536,154.744" fill="rgba(31, 81, 86, 0.31)" class="triangle-float2"></path><path d="M155.964,282.711C182.415,280.751,204.391,264.226,217.49,241.162C230.406,218.419,234.306,190.609,221.088,168.04C207.992,145.68,181.875,135.815,155.964,136.107C130.611,136.392,107.723,148.604,93.331,169.478C76.319,194.152,61.812,225.398,76.318,251.623C91.103,278.352,125.502,284.968,155.964,282.711" fill="rgba(31, 81, 86, 0.31)" class="triangle-float3"></path><path d="M1426.233,647.111C1465.577,645.472,1492.99,611.424,1510.63,576.218C1526.221,545.102,1526.067,509.963,1510.567,478.801C1492.897,443.276,1465.863,408.468,1426.233,406.542C1384.048,404.492,1346.757,432.848,1326.398,469.852C1306.771,505.525,1308.732,548.319,1328.713,583.795C1349.098,619.989,1384.729,648.84,1426.233,647.111" fill="rgba(31, 81, 86, 0.31)" class="triangle-float2"></path><path d="M370.535,443.411C396.667,443.917,422.733,434.844,437.068,412.989C452.86,388.911,458.493,357.022,443.198,332.625C428.568,309.288,398.056,305.734,370.535,306.86C345.405,307.888,320.43,316.611,307.485,338.175C294.185,360.329,295.037,388.332,308.317,410.498C321.241,432.07,345.393,442.924,370.535,443.411" fill="rgba(31, 81, 86, 0.31)" class="triangle-float1"></path><path d="M269.627,662.815C300.03,661.705,326.869,644.003,341.679,617.428C356.09,591.568,354.708,560.856,341.097,534.565C326.152,505.697,302.071,480.269,269.627,478.253C233.937,476.036,198.507,493.479,180.921,524.615C163.584,555.31,168.802,593.379,187.844,623.046C205.394,650.388,237.159,664.001,269.627,662.815" fill="rgba(31, 81, 86, 0.31)" class="triangle-float1"></path><path d="M163.066,146.397C191.631,146.382,218.455,132.085,232.884,107.432C247.46,82.528,249.056,50.734,233.141,26.664C218.492,4.509,189.625,1.602,163.066,1.836C137.062,2.065,109.45,6.195,95.097,27.88C79.391,51.608,78.968,82.819,93.124,107.503C107.348,132.306,134.474,146.412,163.066,146.397" fill="rgba(31, 81, 86, 0.31)" class="triangle-float3"></path><path d="M343.218,655.733C383.987,655.558,408.423,615.244,428.232,579.611C447.269,545.367,464.854,505.538,445.721,471.347C426.283,436.612,383.017,427.039,343.218,427.692C304.778,428.323,265.297,441.15,246.379,474.618C227.7,507.664,239.033,546.87,256.932,580.345C276.234,616.445,302.282,655.908,343.218,655.733" fill="rgba(31, 81, 86, 0.31)" class="triangle-float2"></path><path d="M471.205,584.5C519.42,581.992,566.597,564.537,591.682,523.286C617.731,480.45,617.936,426.891,593.756,382.973C568.678,337.423,523.197,303.766,471.205,304.463C420.226,305.146,381.097,342.862,354.214,386.183C325.328,432.732,299.029,489.878,326.864,537.063C354.444,583.815,416.997,587.32,471.205,584.5" fill="rgba(31, 81, 86, 0.31)" class="triangle-float3"></path><path d="M1237.716,438.476C1272.281,438.62,1306.938,424.218,1323.603,393.936C1339.786,364.53,1331.254,329.086,1313.638,300.515C1297.005,273.54,1269.381,253.354,1237.716,254.641C1207.82,255.856,1187.376,280.746,1171.779,306.28C1155.216,333.394,1138.882,364.79,1153.063,393.223C1168.37,423.911,1203.422,438.333,1237.716,438.476" fill="rgba(31, 81, 86, 0.31)" class="triangle-float1"></path><path d="M740.543,239.917C791.131,239.403,827.132,196.886,852.364,153.036C877.513,109.33,896.404,56.716,871.037,13.136C845.776,-30.262,790.733,-40.616,740.543,-39.072C693.524,-37.625,647.329,-19.654,623.253,20.759C598.642,62.071,602.027,112.951,624.717,155.348C648.894,200.522,689.309,240.437,740.543,239.917" fill="rgba(31, 81, 86, 0.31)" class="triangle-float1"></path></g><defs><mask id="SvgjsMask1022"><rect width="1440" height="560" fill="#ffffff"></rect></mask><style>
            @keyframes float1 {
                0%{transform: translate(0, 0)}
                50%{transform: translate(-10px, 0)}
                100%{transform: translate(0, 0)}
            }

            .triangle-float1 {
                animation: float1 5s infinite;
            }

            @keyframes float2 {
                0%{transform: translate(0, 0)}
                50%{transform: translate(-5px, -5px)}
                100%{transform: translate(0, 0)}
            }

            .triangle-float2 {
                animation: float2 4s infinite;
            }

            @keyframes float3 {
                0%{transform: translate(0, 0)}
                50%{transform: translate(0, -10px)}
                100%{transform: translate(0, 0)}
            }

            .triangle-float3 {
                animation: float3 6s infinite;
            }
        </style></defs></svg>